# xmcd
#
# Track frame offsets:
#	187
#	12632
#	25282
#	35260
#	49945
#	61835
#	72382
#	81870
#	92822
#	103807
#	115662
#	125200
#	133155
#	144895
#	156392
#	166805
#	179187
#	191092
#	202302
#	211302
#	221772
#	237047
#	248402
#	259897
#	271590
#	282950
#	294080
#
# Disc length: 4093 seconds
#
# Revision: 0
# Processed by: cddbd v1.5.2PL0 Copyright (c) Steve Scherf et al.
# Submitted via: audiograbber 1.83.01
#
DISCID=9d0ffb1b
DTITLE=Patsy Cline - The Patsy Cline Collection  [CD1)  Honky Tonk Merry Go Rou
DTITLE=nd
DYEAR=1991
DGENRE=Oldies
TTITLE0=I'm Walking The Dog  (Radio Transcription)
TTITLE1=It Wasn't God Who Made Honky Tonk Angels  (Radio Transcription)
TTITLE2=Turn The Cards Slowly
TTITLE3=A Church, A Courtroom And Then Goodbye
TTITLE4=Honky Tonk Merry Go Round
TTITLE5=I Love You, Honey
TTITLE6=Come On In (And Make Yourself At Home)
TTITLE7=I Don't Wanta
TTITLE8=Stop, Look And Listen  (Previously Unreleased)
TTITLE9=I've Loved And Lost Again
TTITLE10=Yes, I Know Why  (Radio Transcription)
TTITLE11=For Rent  (Radio Transcription)
TTITLE12=Walkin' After Midnight
TTITLE13=The Heart You Break May Be Your Own
TTITLE14=Pick Me Up On Your Way Down
TTITLE15=A Poor Man's Roses (Or A Rich Man's Gold)
TTITLE16=Today, Tomorrow And Forever
TTITLE17=Don't Ever Leave Me Again
TTITLE18=Try Again
TTITLE19=Too Many Secrets
TTITLE20=Then You'll Know
TTITLE21=Three Cigarettes In An Ashtray
TTITLE22=That Wonderful Someone
TTITLE23=In Care Of The Blues
TTITLE24=Hungry For Love
TTITLE25=I Can't Forget
TTITLE26=If I Could See The World (Through The Eyes Of A Child)
EXTD=YEAR: 1991
EXTT0=
EXTT1=
EXTT2=
EXTT3=
EXTT4=
EXTT5=
EXTT6=
EXTT7=
EXTT8=
EXTT9=
EXTT10=
EXTT11=
EXTT12=
EXTT13=
EXTT14=
EXTT15=
EXTT16=
EXTT17=
EXTT18=
EXTT19=
EXTT20=
EXTT21=
EXTT22=
EXTT23=
EXTT24=
EXTT25=
EXTT26=
PLAYORDER=
